<svg width="153" height="28" viewBox="0 0 153 28" fill="none" xmlns="http://www.w3.org/2000/svg">
<g filter="url(#filter0_d_1_7)">
<path d="M12.294 0.592H15.596L17.676 6.702L19.756 0.592H23.084L19.938 8.99L22.278 14.892L27.504 0.539999H31.404L23.89 19H20.874L17.676 11.252L14.478 19H11.462L4 0.539999H7.848L13.1 14.892L15.388 8.99L12.294 0.592ZM38.3793 19.26C37.2873 19.26 36.2993 19.078 35.4153 18.714C34.5313 18.3327 33.7773 17.8213 33.1533 17.18C32.5293 16.5387 32.044 15.7933 31.6973 14.944C31.368 14.0947 31.2033 13.202 31.2033 12.266C31.2033 11.2953 31.368 10.3853 31.6973 9.536C32.0266 8.66933 32.5033 7.91533 33.1273 7.274C33.7513 6.61533 34.5053 6.09533 35.3893 5.714C36.2906 5.33267 37.296 5.142 38.4053 5.142C39.5146 5.142 40.5026 5.33267 41.3693 5.714C42.2533 6.09533 42.9986 6.60667 43.6053 7.248C44.2293 7.88933 44.6973 8.63467 45.0093 9.484C45.3386 10.3333 45.5033 11.2173 45.5033 12.136C45.5033 12.3613 45.4946 12.578 45.4773 12.786C45.4773 12.994 45.46 13.1673 45.4253 13.306H34.8953C34.9473 13.8433 35.0773 14.32 35.2853 14.736C35.4933 15.152 35.762 15.5073 36.0913 15.802C36.4206 16.0967 36.7933 16.322 37.2093 16.478C37.6253 16.634 38.0586 16.712 38.5093 16.712C39.2026 16.712 39.8526 16.5473 40.4593 16.218C41.0833 15.8713 41.508 15.4207 41.7333 14.866L44.7233 15.698C44.2206 16.738 43.4146 17.596 42.3053 18.272C41.2133 18.9307 39.9046 19.26 38.3793 19.26ZM41.9153 11.044C41.8286 10.0213 41.4473 9.20667 40.7713 8.6C40.1126 7.976 39.3066 7.664 38.3533 7.664C37.8853 7.664 37.4433 7.75067 37.0273 7.924C36.6286 8.08 36.2733 8.30533 35.9613 8.6C35.6493 8.89467 35.3893 9.25 35.1813 9.666C34.9906 10.082 34.878 10.5413 34.8433 11.044H41.9153ZM56.1538 19.26C55.1138 19.26 54.1864 19.026 53.3718 18.558C52.5571 18.09 51.9158 17.4487 51.4478 16.634V19H48.4058V0.0199995H51.8898V7.768C52.3751 6.936 53.0078 6.29467 53.7878 5.844C54.5851 5.376 55.5124 5.142 56.5698 5.142C57.4538 5.142 58.2598 5.33267 58.9878 5.714C59.7158 6.09533 60.3398 6.60667 60.8598 7.248C61.3971 7.88933 61.8044 8.64333 62.0818 9.51C62.3764 10.3767 62.5238 11.2867 62.5238 12.24C62.5238 13.228 62.3591 14.1467 62.0298 14.996C61.7178 15.8453 61.2758 16.5907 60.7038 17.232C60.1318 17.856 59.4558 18.35 58.6758 18.714C57.8958 19.078 57.0551 19.26 56.1538 19.26ZM55.1918 16.296C55.7464 16.296 56.2578 16.192 56.7258 15.984C57.1938 15.7587 57.5924 15.464 57.9218 15.1C58.2511 14.736 58.5024 14.3113 58.6758 13.826C58.8664 13.3407 58.9618 12.8207 58.9618 12.266C58.9618 11.7113 58.8751 11.1827 58.7018 10.68C58.5284 10.1773 58.2771 9.73533 57.9478 9.354C57.6358 8.97267 57.2631 8.66933 56.8298 8.444C56.3964 8.21867 55.9198 8.106 55.3998 8.106C54.6198 8.106 53.9178 8.366 53.2938 8.886C52.6871 9.38867 52.2191 10.0127 51.8898 10.758V14.008C52.0111 14.3547 52.1844 14.6667 52.4098 14.944C52.6524 15.2213 52.9211 15.464 53.2158 15.672C53.5104 15.8627 53.8311 16.0187 54.1778 16.14C54.5244 16.244 54.8624 16.296 55.1918 16.296Z" fill="#2196F3"/>
<path d="M77.0003 5.376C76.8789 5.25467 76.6536 5.09 76.3243 4.882C76.0123 4.674 75.6223 4.47467 75.1543 4.284C74.7036 4.076 74.2096 3.90267 73.6723 3.764C73.1349 3.62533 72.5889 3.556 72.0343 3.556C71.0463 3.556 70.3096 3.738 69.8243 4.102C69.3389 4.466 69.0963 4.97733 69.0963 5.636C69.0963 6.01733 69.1829 6.338 69.3563 6.598C69.5469 6.84067 69.8156 7.05733 70.1623 7.248C70.5089 7.43867 70.9423 7.612 71.4623 7.768C71.9996 7.924 72.6149 8.08867 73.3083 8.262C74.2096 8.50467 75.0243 8.76467 75.7523 9.042C76.4976 9.31933 77.1216 9.666 77.6243 10.082C78.1443 10.498 78.5429 11.0007 78.8203 11.59C79.0976 12.162 79.2363 12.8727 79.2363 13.722C79.2363 14.71 79.0456 15.5593 78.6643 16.27C78.3003 16.9633 77.7976 17.5267 77.1563 17.96C76.5323 18.3933 75.8043 18.714 74.9723 18.922C74.1576 19.1127 73.2996 19.208 72.3983 19.208C71.0116 19.208 69.6423 19 68.2903 18.584C66.9383 18.168 65.7249 17.5787 64.6503 16.816L66.2363 13.722C66.3923 13.878 66.6696 14.086 67.0683 14.346C67.4843 14.5887 67.9696 14.84 68.5243 15.1C69.0789 15.3427 69.6943 15.5507 70.3703 15.724C71.0463 15.8973 71.7396 15.984 72.4503 15.984C74.4263 15.984 75.4143 15.3513 75.4143 14.086C75.4143 13.6873 75.3016 13.3493 75.0763 13.072C74.8509 12.7947 74.5303 12.552 74.1143 12.344C73.6983 12.136 73.1956 11.9453 72.6063 11.772C72.0169 11.5987 71.3583 11.408 70.6303 11.2C69.7463 10.9573 68.9749 10.6973 68.3163 10.42C67.6749 10.1253 67.1376 9.78733 66.7043 9.406C66.2709 9.00733 65.9416 8.55667 65.7163 8.054C65.5083 7.534 65.4043 6.91867 65.4043 6.208C65.4043 5.272 65.5776 4.44 65.9243 3.712C66.2709 2.984 66.7476 2.37733 67.3543 1.892C67.9783 1.40667 68.6976 1.04267 69.5123 0.799999C70.3269 0.539999 71.2023 0.409999 72.1383 0.409999C73.4383 0.409999 74.6343 0.617999 75.7263 1.034C76.8183 1.43267 77.7716 1.90933 78.5863 2.464L77.0003 5.376ZM90.4013 18.298C89.9333 18.506 89.3613 18.714 88.6853 18.922C88.0093 19.13 87.2986 19.234 86.5533 19.234C86.0679 19.234 85.6086 19.1733 85.1753 19.052C84.7593 18.9307 84.3866 18.74 84.0573 18.48C83.7453 18.2027 83.4939 17.856 83.3033 17.44C83.1126 17.0067 83.0173 16.4867 83.0173 15.88V8.054H81.2233V5.376H83.0173V0.956H86.5013V5.376H89.3613V8.054H86.5013V14.71C86.5013 15.1953 86.6226 15.542 86.8653 15.75C87.1253 15.9407 87.4373 16.036 87.8013 16.036C88.1653 16.036 88.5206 15.9753 88.8673 15.854C89.2139 15.7327 89.4913 15.6287 89.6993 15.542L90.4013 18.298ZM97.1558 19.26C95.7518 19.26 94.6858 18.8093 93.9578 17.908C93.2298 17.0067 92.8658 15.672 92.8658 13.904V5.376H96.3498V13.15C96.3498 15.2473 97.1038 16.296 98.6118 16.296C99.2878 16.296 99.9378 16.0967 100.562 15.698C101.203 15.282 101.723 14.658 102.122 13.826V5.376H105.606V14.996C105.606 15.36 105.666 15.62 105.788 15.776C105.926 15.932 106.143 16.0187 106.438 16.036V19C106.091 19.0693 105.796 19.1127 105.554 19.13C105.328 19.1473 105.12 19.156 104.93 19.156C104.306 19.156 103.794 19.0173 103.396 18.74C103.014 18.4453 102.789 18.0467 102.72 17.544L102.642 16.452C102.035 17.388 101.255 18.09 100.302 18.558C99.3484 19.026 98.2998 19.26 97.1558 19.26ZM115.49 19.26C114.554 19.26 113.687 19.078 112.89 18.714C112.093 18.35 111.408 17.8473 110.836 17.206C110.264 16.5647 109.813 15.8193 109.484 14.97C109.172 14.1033 109.016 13.176 109.016 12.188C109.016 11.2 109.163 10.2813 109.458 9.432C109.77 8.58267 110.195 7.83733 110.732 7.196C111.269 6.55467 111.911 6.052 112.656 5.688C113.401 5.324 114.216 5.142 115.1 5.142C116.105 5.142 117.007 5.38467 117.804 5.87C118.619 6.35533 119.251 6.988 119.702 7.768V0.0199995H123.186V14.996C123.186 15.36 123.247 15.62 123.368 15.776C123.489 15.932 123.697 16.0187 123.992 16.036V19C123.385 19.1213 122.891 19.182 122.51 19.182C121.886 19.182 121.375 19.026 120.976 18.714C120.577 18.402 120.352 17.9947 120.3 17.492L120.222 16.634C119.719 17.5007 119.035 18.1593 118.168 18.61C117.319 19.0433 116.426 19.26 115.49 19.26ZM116.4 16.296C116.729 16.296 117.067 16.244 117.414 16.14C117.761 16.0187 118.081 15.854 118.376 15.646C118.671 15.438 118.931 15.1953 119.156 14.918C119.399 14.6407 119.581 14.3373 119.702 14.008V10.758C119.563 10.3767 119.364 10.03 119.104 9.718C118.861 9.38867 118.575 9.11133 118.246 8.886C117.934 8.64333 117.596 8.45267 117.232 8.314C116.885 8.17533 116.539 8.106 116.192 8.106C115.672 8.106 115.187 8.21867 114.736 8.444C114.303 8.66933 113.93 8.98133 113.618 9.38C113.306 9.76133 113.063 10.2033 112.89 10.706C112.717 11.2087 112.63 11.7287 112.63 12.266C112.63 12.838 112.725 13.3667 112.916 13.852C113.107 14.3373 113.367 14.762 113.696 15.126C114.025 15.49 114.415 15.776 114.866 15.984C115.334 16.192 115.845 16.296 116.4 16.296ZM127.386 19V5.376H130.87V19H127.386ZM127.386 3.478V0.0199995H130.87V3.478H127.386ZM141.085 19.26C139.975 19.26 138.979 19.0693 138.095 18.688C137.211 18.3067 136.457 17.7953 135.833 17.154C135.226 16.4953 134.758 15.7413 134.429 14.892C134.099 14.0427 133.935 13.15 133.935 12.214C133.935 11.2607 134.099 10.3593 134.429 9.51C134.758 8.66067 135.226 7.91533 135.833 7.274C136.457 6.61533 137.211 6.09533 138.095 5.714C138.979 5.33267 139.975 5.142 141.085 5.142C142.194 5.142 143.182 5.33267 144.049 5.714C144.933 6.09533 145.678 6.61533 146.285 7.274C146.909 7.91533 147.385 8.66067 147.715 9.51C148.044 10.3593 148.209 11.2607 148.209 12.214C148.209 13.15 148.044 14.0427 147.715 14.892C147.385 15.7413 146.917 16.4953 146.311 17.154C145.704 17.7953 144.959 18.3067 144.075 18.688C143.191 19.0693 142.194 19.26 141.085 19.26ZM137.523 12.214C137.523 12.8207 137.609 13.3753 137.783 13.878C137.973 14.3633 138.225 14.788 138.537 15.152C138.866 15.516 139.247 15.802 139.681 16.01C140.114 16.2007 140.582 16.296 141.085 16.296C141.587 16.296 142.055 16.2007 142.489 16.01C142.922 15.802 143.295 15.516 143.607 15.152C143.936 14.788 144.187 14.3547 144.361 13.852C144.551 13.3493 144.647 12.7947 144.647 12.188C144.647 11.5987 144.551 11.0527 144.361 10.55C144.187 10.0473 143.936 9.614 143.607 9.25C143.295 8.886 142.922 8.60867 142.489 8.418C142.055 8.21 141.587 8.106 141.085 8.106C140.582 8.106 140.114 8.21 139.681 8.418C139.247 8.626 138.866 8.912 138.537 9.276C138.225 9.64 137.973 10.0733 137.783 10.576C137.609 11.0787 137.523 11.6247 137.523 12.214Z" fill="black"/>
<path d="M12.294 0.592V-0.408H10.8599L11.3557 0.937706L12.294 0.592ZM15.596 0.592L16.5427 0.269736L16.3119 -0.408H15.596V0.592ZM17.676 6.702L16.7294 7.02426L17.676 9.80505L18.6227 7.02426L17.676 6.702ZM19.756 0.592V-0.408H19.0401L18.8094 0.269736L19.756 0.592ZM23.084 0.592L24.0204 0.942806L24.5265 -0.408H23.084V0.592ZM19.938 8.99L19.0016 8.63919L18.8663 9.0002L19.0084 9.35856L19.938 8.99ZM22.278 14.892L21.3484 15.2606L22.3178 17.7055L23.2176 15.2342L22.278 14.892ZM27.504 0.539999V-0.460001H26.8039L26.5644 0.197846L27.504 0.539999ZM31.404 0.539999L32.3302 0.917006L32.8907 -0.460001H31.404V0.539999ZM23.89 19V20H24.5626L24.8162 19.377L23.89 19ZM20.874 19L19.9496 19.3815L20.2049 20H20.874V19ZM17.676 11.252L18.6004 10.8705L17.676 8.63097L16.7516 10.8705L17.676 11.252ZM14.478 19V20H15.1471L15.4024 19.3815L14.478 19ZM11.462 19L10.5349 19.3748L10.7876 20H11.462V19ZM4 0.539999V-0.460001H2.51717L3.07288 0.914764L4 0.539999ZM7.848 0.539999L8.7871 0.196344L8.54691 -0.460001H7.848V0.539999ZM13.1 14.892L12.1609 15.2357L13.073 17.7282L14.0324 15.2535L13.1 14.892ZM15.388 8.99L16.3204 9.35145L16.457 8.999L16.3263 8.64429L15.388 8.99ZM12.294 1.592H15.596V-0.408H12.294V1.592ZM14.6494 0.914264L16.7294 7.02426L18.6227 6.37974L16.5427 0.269736L14.6494 0.914264ZM18.6227 7.02426L20.7027 0.914264L18.8094 0.269736L16.7294 6.37974L18.6227 7.02426ZM19.756 1.592H23.084V-0.408H19.756V1.592ZM22.1476 0.241194L19.0016 8.63919L20.8744 9.34081L24.0204 0.942806L22.1476 0.241194ZM19.0084 9.35856L21.3484 15.2606L23.2076 14.5234L20.8676 8.62144L19.0084 9.35856ZM23.2176 15.2342L28.4436 0.882152L26.5644 0.197846L21.3384 14.5498L23.2176 15.2342ZM27.504 1.54H31.404V-0.460001H27.504V1.54ZM30.4778 0.162992L22.9638 18.623L24.8162 19.377L32.3302 0.917006L30.4778 0.162992ZM23.89 18H20.874V20H23.89V18ZM21.7984 18.6185L18.6004 10.8705L16.7516 11.6335L19.9496 19.3815L21.7984 18.6185ZM16.7516 10.8705L13.5536 18.6185L15.4024 19.3815L18.6004 11.6335L16.7516 10.8705ZM14.478 18H11.462V20H14.478V18ZM12.3891 18.6252L4.92712 0.165234L3.07288 0.914764L10.5349 19.3748L12.3891 18.6252ZM4 1.54H7.848V-0.460001H4V1.54ZM6.9089 0.883654L12.1609 15.2357L14.0391 14.5483L8.7871 0.196344L6.9089 0.883654ZM14.0324 15.2535L16.3204 9.35145L14.4556 8.62854L12.1676 14.5305L14.0324 15.2535ZM16.3263 8.64429L13.2323 0.246294L11.3557 0.937706L14.4497 9.3357L16.3263 8.64429ZM35.4153 18.714L35.0192 19.6322L35.0269 19.6355L35.0346 19.6387L35.4153 18.714ZM33.1533 17.18L32.4366 17.8774L33.1533 17.18ZM31.6973 14.944L30.765 15.3055L30.7681 15.3137L30.7715 15.3219L31.6973 14.944ZM31.6973 9.536L32.6297 9.89754L32.6321 9.89122L31.6973 9.536ZM33.1273 7.274L33.8441 7.97142L33.8533 7.96174L33.1273 7.274ZM35.3893 5.714L34.9997 4.79301L34.9932 4.79579L35.3893 5.714ZM41.3693 5.714L40.9666 6.62934L40.9732 6.63221L41.3693 5.714ZM43.6053 7.248L42.8788 7.93527L42.8886 7.94535L43.6053 7.248ZM45.0093 9.484L44.0706 9.82882L44.0737 9.8372L44.077 9.84553L45.0093 9.484ZM45.4773 12.786L44.4808 12.703L44.4773 12.7444V12.786H45.4773ZM45.4253 13.306V14.306H46.2061L46.3955 13.5485L45.4253 13.306ZM34.8953 13.306V12.306H33.7939L33.9 13.4023L34.8953 13.306ZM35.2853 14.736L34.3909 15.1832L35.2853 14.736ZM36.0913 15.802L35.4245 16.5472L36.0913 15.802ZM37.2093 16.478L36.8582 17.4143L37.2093 16.478ZM40.4593 16.218L40.9364 17.0969L40.945 17.0922L40.4593 16.218ZM41.7333 14.866L42.0014 13.9026L41.1424 13.6636L40.8068 14.4896L41.7333 14.866ZM44.7233 15.698L45.6237 16.1332L46.1445 15.0555L44.9914 14.7346L44.7233 15.698ZM42.3053 18.272L42.8218 19.1283L42.8257 19.1259L42.3053 18.272ZM41.9153 11.044V12.044H43.0036L42.9117 10.9596L41.9153 11.044ZM40.7713 8.6L40.0836 9.32595L40.0934 9.33523L40.1034 9.34424L40.7713 8.6ZM37.0273 7.924L37.3917 8.85524L37.4019 8.85127L37.4119 8.84708L37.0273 7.924ZM35.9613 8.6L36.6479 9.32701L35.9613 8.6ZM35.1813 9.666L34.2869 9.21879L34.2793 9.23394L34.2722 9.24934L35.1813 9.666ZM34.8433 11.044L33.8457 10.9752L33.772 12.044H34.8433V11.044ZM38.3793 18.26C37.3995 18.26 36.5433 18.097 35.7961 17.7893L35.0346 19.6387C36.0553 20.059 37.1751 20.26 38.3793 20.26V18.26ZM35.8114 17.7958C35.0385 17.4624 34.3959 17.0231 33.87 16.4826L32.4366 17.8774C33.1587 18.6195 34.0241 19.203 35.0192 19.6322L35.8114 17.7958ZM33.87 16.4826C33.3379 15.9357 32.9225 15.2996 32.6232 14.5661L30.7715 15.3219C31.1654 16.2871 31.7207 17.1416 32.4366 17.8774L33.87 16.4826ZM32.6297 14.5825C32.3463 13.8516 32.2033 13.0818 32.2033 12.266H30.2033C30.2033 13.3222 30.3897 14.3377 30.765 15.3055L32.6297 14.5825ZM32.2033 12.266C32.2033 11.4108 32.3479 10.6242 32.6297 9.89753L30.765 9.17447C30.388 10.1465 30.2033 11.1799 30.2033 12.266H32.2033ZM32.6321 9.89122C32.9147 9.14758 33.3188 8.51118 33.844 7.97135L32.4106 6.57664C31.6878 7.31948 31.1386 8.19109 30.7625 9.18078L32.6321 9.89122ZM33.8533 7.96174C34.3785 7.40738 35.0181 6.9632 35.7854 6.63221L34.9932 4.79579C33.9925 5.22747 33.1242 5.82328 32.4014 6.58625L33.8533 7.96174ZM35.779 6.63497C36.5416 6.31231 37.412 6.142 38.4053 6.142V4.142C37.1799 4.142 36.0397 4.35302 34.9997 4.79303L35.779 6.63497ZM38.4053 6.142C39.3995 6.142 40.2467 6.31258 40.9666 6.62931L41.7721 4.79868C40.7586 4.35275 39.6298 4.142 38.4053 4.142V6.142ZM40.9732 6.63221C41.7439 6.96468 42.3736 7.40112 42.8788 7.9352L44.3318 6.5608C43.6237 5.81221 42.7627 5.22599 41.7654 4.79579L40.9732 6.63221ZM42.8886 7.94535C43.4136 8.4849 43.8065 9.10975 44.0706 9.82882L45.948 9.13918C45.5881 8.15958 45.0451 7.29376 44.322 6.55064L42.8886 7.94535ZM44.077 9.84553C44.3612 10.5786 44.5033 11.3399 44.5033 12.136H46.5033C46.5033 11.0948 46.3161 10.0881 45.9417 9.12247L44.077 9.84553ZM44.5033 12.136C44.5033 12.3358 44.4956 12.5247 44.4808 12.703L46.4739 12.869C46.4937 12.6313 46.5033 12.3869 46.5033 12.136H44.5033ZM44.4773 12.786C44.4773 12.9457 44.4633 13.0311 44.4552 13.0635L46.3955 13.5485C46.4567 13.3036 46.4773 13.0423 46.4773 12.786H44.4773ZM45.4253 12.306H34.8953V14.306H45.4253V12.306ZM33.9 13.4023C33.9619 14.0425 34.1199 14.6413 34.3909 15.1832L36.1797 14.2888C36.0347 13.9987 35.9327 13.6442 35.8907 13.2097L33.9 13.4023ZM34.3909 15.1832C34.6523 15.706 34.9963 16.1641 35.4245 16.5472L36.7581 15.0568C36.5276 14.8506 36.3343 14.598 36.1797 14.2888L34.3909 15.1832ZM35.4245 16.5472C35.8468 16.9251 36.3267 17.215 36.8582 17.4143L37.5604 15.5417C37.26 15.429 36.9945 15.2682 36.7581 15.0568L35.4245 16.5472ZM36.8582 17.4143C37.3881 17.613 37.9405 17.712 38.5093 17.712V15.712C38.1768 15.712 37.8625 15.655 37.5604 15.5417L36.8582 17.4143ZM38.5093 17.712C39.3685 17.712 40.1826 17.5061 40.9364 17.0969L39.9822 15.3391C39.5227 15.5886 39.0368 15.712 38.5093 15.712V17.712ZM40.945 17.0922C41.7285 16.6569 42.3329 16.0471 42.6598 15.2424L40.8068 14.4896C40.6831 14.7942 40.4381 15.0858 39.9737 15.3438L40.945 17.0922ZM41.4652 15.8294L44.4552 16.6614L44.9914 14.7346L42.0014 13.9026L41.4652 15.8294ZM43.823 15.2628C43.4142 16.1086 42.7511 16.8293 41.7849 17.4181L42.8257 19.1259C44.0782 18.3627 45.0271 17.3674 45.6237 16.1332L43.823 15.2628ZM41.7888 17.4157C40.8808 17.9634 39.7585 18.26 38.3793 18.26V20.26C40.0508 20.26 41.5458 19.8979 42.8218 19.1283L41.7888 17.4157ZM42.9117 10.9596C42.8066 9.71876 42.3298 8.65496 41.4392 7.85576L40.1034 9.34424C40.5649 9.75837 40.8507 10.3239 40.9189 11.1284L42.9117 10.9596ZM41.4591 7.87405C40.6045 7.06447 39.5482 6.664 38.3533 6.664V8.664C39.0651 8.664 39.6208 8.88753 40.0836 9.32595L41.4591 7.87405ZM38.3533 6.664C37.7585 6.664 37.1853 6.77485 36.6427 7.00092L37.4119 8.84708C37.7014 8.72648 38.0122 8.664 38.3533 8.664V6.664ZM36.6629 6.99276C36.1444 7.19564 35.6798 7.49042 35.2747 7.87299L36.6479 9.32701C36.8669 9.12025 37.1129 8.96436 37.3917 8.85524L36.6629 6.99276ZM35.2747 7.87299C34.8707 8.25452 34.5428 8.70686 34.2869 9.21879L36.0757 10.1132C36.2358 9.79314 36.4279 9.53481 36.6479 9.32701L35.2747 7.87299ZM34.2722 9.24934C34.0265 9.78556 33.8878 10.3643 33.8457 10.9752L35.8409 11.1128C35.8681 10.7183 35.9548 10.3784 36.0904 10.0827L34.2722 9.24934ZM34.8433 12.044H41.9153V10.044H34.8433V12.044ZM53.3718 18.558L52.8736 19.4251L53.3718 18.558ZM51.4478 16.634L52.3149 16.1359L50.4478 12.8857V16.634H51.4478ZM51.4478 19V20H52.4478V19H51.4478ZM48.4058 19H47.4058V20H48.4058V19ZM48.4058 0.0199995V-0.98H47.4058V0.0199995H48.4058ZM51.8898 0.0199995H52.8898V-0.98H51.8898V0.0199995ZM51.8898 7.768H50.8898V11.4669L52.7535 8.27187L51.8898 7.768ZM53.7878 5.844L54.2881 6.70988L54.294 6.70641L53.7878 5.844ZM58.9878 5.714L58.5238 6.59983L58.9878 5.714ZM60.8598 7.248L60.083 7.8778L60.0881 7.88405L60.0932 7.89022L60.8598 7.248ZM62.0818 9.51L61.1293 9.81477L61.1321 9.82336L61.135 9.8319L62.0818 9.51ZM62.0298 14.996L61.0974 14.6345L61.0942 14.6428L61.0911 14.6512L62.0298 14.996ZM60.7038 17.232L61.441 17.9078L61.4501 17.8976L60.7038 17.232ZM58.6758 18.714L58.2529 17.8078L58.6758 18.714ZM56.7258 15.984L57.1319 16.8978L57.1458 16.8916L57.1596 16.885L56.7258 15.984ZM58.6758 13.826L57.745 13.4603L57.7393 13.4749L57.734 13.4897L58.6758 13.826ZM58.7018 10.68L59.6471 10.354L58.7018 10.68ZM57.9478 9.354L57.1738 9.98724L57.1822 9.99754L57.1909 10.0076L57.9478 9.354ZM53.2938 8.886L53.9318 9.65602L53.934 9.65422L53.2938 8.886ZM51.8898 10.758L50.9751 10.3538L50.8898 10.5469V10.758H51.8898ZM51.8898 14.008H50.8898V14.1779L50.9459 14.3384L51.8898 14.008ZM52.4098 14.944L51.6337 15.5746L51.6452 15.5888L51.6572 15.6025L52.4098 14.944ZM53.2158 15.672L52.6391 16.489L52.6556 16.5006L52.6725 16.5116L53.2158 15.672ZM54.1778 16.14L53.8474 17.0839L53.8688 17.0913L53.8904 17.0978L54.1778 16.14ZM56.1538 18.26C55.2694 18.26 54.5172 18.0627 53.8699 17.6909L52.8736 19.4251C53.8557 19.9893 54.9581 20.26 56.1538 20.26V18.26ZM53.8699 17.6909C53.2087 17.3111 52.6947 16.7971 52.3149 16.1359L50.5807 17.1321C51.1368 18.1003 51.9055 18.8689 52.8736 19.4251L53.8699 17.6909ZM50.4478 16.634V19H52.4478V16.634H50.4478ZM51.4478 18H48.4058V20H51.4478V18ZM49.4058 19V0.0199995H47.4058V19H49.4058ZM48.4058 1.02H51.8898V-0.98H48.4058V1.02ZM50.8898 0.0199995V7.768H52.8898V0.0199995H50.8898ZM52.7535 8.27187C53.1575 7.57933 53.6691 7.0675 54.288 6.70986L53.2875 4.97813C52.3465 5.52183 51.5927 6.29267 51.026 7.26413L52.7535 8.27187ZM54.294 6.70641C54.9168 6.34081 55.6644 6.142 56.5698 6.142V4.142C55.3605 4.142 54.2534 4.41119 53.2816 4.98158L54.294 6.70641ZM56.5698 6.142C57.3047 6.142 57.9496 6.2991 58.5238 6.59983L59.4518 4.82817C58.5699 4.36623 57.6029 4.142 56.5698 4.142V6.142ZM58.5238 6.59983C59.1306 6.9177 59.6483 7.3417 60.083 7.8778L61.6365 6.6182C61.0312 5.87163 60.3009 5.27297 59.4518 4.82817L58.5238 6.59983ZM60.0932 7.89022C60.5403 8.42379 60.888 9.06069 61.1293 9.81477L63.0342 9.20522C62.7208 8.22597 62.2539 7.35488 61.6263 6.60578L60.0932 7.89022ZM61.135 9.8319C61.393 10.5907 61.5238 11.3916 61.5238 12.24H63.5238C63.5238 11.1818 63.3599 10.1627 63.0285 9.1881L61.135 9.8319ZM61.5238 12.24C61.5238 13.1149 61.3784 13.9098 61.0974 14.6345L62.9621 15.3575C63.3398 14.3835 63.5238 13.3411 63.5238 12.24H61.5238ZM61.0911 14.6512C60.8201 15.3888 60.4414 16.0238 59.9575 16.5664L61.4501 17.8976C62.1102 17.1575 62.6154 16.3019 62.9684 15.3408L61.0911 14.6512ZM59.9666 16.5563C59.4848 17.0819 58.9161 17.4983 58.2529 17.8078L59.0987 19.6202C59.9955 19.2017 60.7788 18.6301 61.4409 17.9077L59.9666 16.5563ZM58.2529 17.8078C57.6115 18.1071 56.916 18.26 56.1538 18.26V20.26C57.1942 20.26 58.18 20.0489 59.0987 19.6202L58.2529 17.8078ZM55.1918 17.296C55.8746 17.296 56.5257 17.1672 57.1319 16.8978L56.3196 15.0702C55.9898 15.2168 55.6183 15.296 55.1918 15.296V17.296ZM57.1596 16.885C57.7372 16.6069 58.2423 16.2363 58.6633 15.7709L57.1802 14.4291C56.9426 14.6917 56.6503 14.9104 56.292 15.083L57.1596 16.885ZM58.6633 15.7709C59.085 15.3048 59.4023 14.765 59.6175 14.1623L57.734 13.4897C57.6026 13.8577 57.4172 14.1672 57.1802 14.4291L58.6633 15.7709ZM59.6065 14.1917C59.8458 13.5826 59.9618 12.9378 59.9618 12.266H57.9618C57.9618 12.7036 57.8871 13.0988 57.745 13.4603L59.6065 14.1917ZM59.9618 12.266C59.9618 11.6052 59.8582 10.966 59.6471 10.354L57.7564 11.006C57.892 11.3993 57.9618 11.8174 57.9618 12.266H59.9618ZM59.6471 10.354C59.4347 9.73787 59.1216 9.18319 58.7046 8.70038L57.1909 10.0076C57.4326 10.2875 57.6222 10.6168 57.7564 11.006L59.6471 10.354ZM58.7217 8.72076C58.3246 8.23539 57.8459 7.84526 57.2911 7.55678L56.3684 9.33122C56.6803 9.49341 56.9469 9.70994 57.1738 9.98724L58.7217 8.72076ZM57.2911 7.55678C56.7061 7.25258 56.0697 7.106 55.3998 7.106V9.106C55.7698 9.106 56.0868 9.18475 56.3684 9.33122L57.2911 7.55678ZM55.3998 7.106C54.3755 7.106 53.4492 7.45474 52.6536 8.11778L53.934 9.65422C54.3863 9.27726 54.864 9.106 55.3998 9.106V7.106ZM52.6558 8.11598C51.9256 8.72095 51.3648 9.47178 50.9751 10.3538L52.8045 11.1622C53.0734 10.5536 53.4486 10.0564 53.9318 9.65602L52.6558 8.11598ZM50.8898 10.758V14.008H52.8898V10.758H50.8898ZM50.9459 14.3384C51.1043 14.791 51.3335 15.2051 51.6337 15.5746L53.1859 14.3134C53.0354 14.1282 52.9179 13.9184 52.8336 13.6777L50.9459 14.3384ZM51.6572 15.6025C51.9509 15.9381 52.2783 16.2343 52.6391 16.489L53.7924 14.855C53.5639 14.6937 53.354 14.5045 53.1623 14.2855L51.6572 15.6025ZM52.6725 16.5116C53.0368 16.7473 53.4294 16.9375 53.8474 17.0839L54.5081 15.1961C54.2328 15.0998 53.9841 14.9781 53.759 14.8324L52.6725 16.5116ZM53.8904 17.0978C54.3212 17.227 54.756 17.296 55.1918 17.296V15.296C54.9689 15.296 54.7277 15.261 54.4651 15.1822L53.8904 17.0978ZM77.0003 5.376L76.2932 6.08311L77.2388 7.02875L77.8785 5.8543L77.0003 5.376ZM76.3243 4.882L75.7696 5.71405L75.7799 5.7209L75.7903 5.72749L76.3243 4.882ZM75.1543 4.284L74.7352 5.19196L74.7559 5.2015L74.777 5.21009L75.1543 4.284ZM69.8243 4.102L70.4243 4.902L70.4243 4.902L69.8243 4.102ZM69.3563 6.598L68.5242 7.1527L68.5459 7.18515L68.57 7.21582L69.3563 6.598ZM71.4623 7.768L71.1749 8.72586L71.1835 8.72835L71.4623 7.768ZM73.3083 8.262L73.5683 7.29638L73.5596 7.29404L73.5508 7.29186L73.3083 8.262ZM75.7523 9.042L75.3963 9.97652L75.4035 9.97922L75.7523 9.042ZM77.6243 10.082L76.9867 10.8524L76.9931 10.8577L76.9996 10.8629L77.6243 10.082ZM78.8203 11.59L77.9154 12.0158L77.9205 12.0263L78.8203 11.59ZM78.6643 16.27L77.7831 15.7972L77.7789 15.8052L78.6643 16.27ZM77.1563 17.96L76.5964 17.1313L76.5859 17.1386L77.1563 17.96ZM74.9723 18.922L75.2002 19.8957L75.2075 19.894L75.2148 19.8921L74.9723 18.922ZM68.2903 18.584L67.9962 19.5398L68.2903 18.584ZM64.6503 16.816L63.7604 16.3598L63.3654 17.1304L64.0715 17.6315L64.6503 16.816ZM66.2363 13.722L66.9434 13.0149L65.9726 12.0441L65.3464 13.2658L66.2363 13.722ZM67.0683 14.346L66.522 15.1836L66.5429 15.1972L66.5644 15.2098L67.0683 14.346ZM68.5243 15.1L68.0998 16.0055L68.1116 16.011L68.1235 16.0162L68.5243 15.1ZM70.3703 15.724L70.1219 16.6927L70.3703 15.724ZM75.0763 13.072L74.3002 13.7026V13.7026L75.0763 13.072ZM74.1143 12.344L73.6671 13.2384L74.1143 12.344ZM72.6063 11.772L72.8885 10.8126L72.6063 11.772ZM70.6303 11.2L70.905 10.2384L70.895 10.2357L70.6303 11.2ZM68.3163 10.42L67.8988 11.3287L67.9134 11.3354L67.9282 11.3416L68.3163 10.42ZM66.7043 9.406L66.0272 10.1419L66.0354 10.1494L66.0437 10.1567L66.7043 9.406ZM65.7163 8.054L64.7878 8.42539L64.7954 8.44439L64.8038 8.46305L65.7163 8.054ZM65.9243 3.712L66.8271 4.14193L65.9243 3.712ZM67.3543 1.892L66.7403 1.10257L66.7296 1.11113L67.3543 1.892ZM69.5123 0.799999L69.7978 1.75838L69.8071 1.75561L69.8163 1.75266L69.5123 0.799999ZM75.7263 1.034L75.3703 1.96858L75.3833 1.97336L75.7263 1.034ZM78.5863 2.464L79.4645 2.9423L79.8976 2.14704L79.1491 1.6374L78.5863 2.464ZM77.7074 4.66889C77.5006 4.46208 77.1917 4.24707 76.8583 4.03651L75.7903 5.72749C76.1156 5.93293 76.2573 6.04725 76.2932 6.08311L77.7074 4.66889ZM76.879 4.04995C76.4957 3.79445 76.0418 3.56578 75.5316 3.35791L74.777 5.21009C75.2028 5.38356 75.5288 5.55355 75.7696 5.71405L76.879 4.04995ZM75.5733 3.37604C75.0623 3.14016 74.5109 2.94765 73.9222 2.79572L73.4224 4.73228C73.9083 4.85768 74.345 5.01184 74.7352 5.19196L75.5733 3.37604ZM73.9222 2.79572C73.3032 2.636 72.6733 2.556 72.0343 2.556V4.556C72.5046 4.556 72.9667 4.61466 73.4224 4.73228L73.9222 2.79572ZM72.0343 2.556C70.9549 2.556 69.9614 2.74917 69.2243 3.302L70.4243 4.902C70.6578 4.72683 71.1376 4.556 72.0343 4.556V2.556ZM69.2243 3.302C68.4631 3.87285 68.0963 4.69383 68.0963 5.636H70.0963C70.0963 5.26084 70.2148 5.05915 70.4243 4.902L69.2243 3.302ZM68.0963 5.636C68.0963 6.17084 68.2193 6.69535 68.5242 7.1527L70.1883 6.0433C70.1466 5.98065 70.0963 5.86382 70.0963 5.636H68.0963ZM68.57 7.21582C68.8635 7.58947 69.2478 7.88628 69.6804 8.12422L70.6442 6.37178C70.3835 6.22838 70.2303 6.09186 70.1426 5.98018L68.57 7.21582ZM69.6804 8.12422C70.1068 8.35878 70.6104 8.55647 71.1749 8.72583L71.7496 6.81017C71.2741 6.66752 70.911 6.51855 70.6442 6.37178L69.6804 8.12422ZM71.1835 8.72835C71.7356 8.88864 72.3634 9.05656 73.0658 9.23214L73.5508 7.29186C72.8665 7.12078 72.2636 6.95936 71.7411 6.80765L71.1835 8.72835ZM73.0483 9.22762C73.9233 9.46318 74.7052 9.71321 75.3963 9.97649L76.1083 8.10751C75.3434 7.81612 74.496 7.54615 73.5683 7.29638L73.0483 9.22762ZM75.4035 9.97922C76.0661 10.2258 76.5868 10.5215 76.9867 10.8524L78.2618 9.3116C77.6564 8.81055 76.9291 8.4129 76.101 8.10478L75.4035 9.97922ZM76.9996 10.8629C77.4031 11.1857 77.7047 11.5678 77.9155 12.0158L79.7251 11.1642C79.3812 10.4335 78.8855 9.81033 78.249 9.30113L76.9996 10.8629ZM77.9205 12.0263C78.1136 12.4246 78.2363 12.9754 78.2363 13.722H80.2363C80.2363 12.77 80.0816 11.8994 79.7201 11.1537L77.9205 12.0263ZM78.2363 13.722C78.2363 14.5817 78.0708 15.2611 77.7831 15.7972L79.5454 16.7428C80.0205 15.8575 80.2363 14.8383 80.2363 13.722H78.2363ZM77.7789 15.8052C77.4907 16.354 77.0992 16.7917 76.5964 17.1314L77.7161 18.7886C78.496 18.2616 79.1098 17.5727 79.5497 16.7348L77.7789 15.8052ZM76.5859 17.1386C76.0732 17.4946 75.4594 17.7695 74.7297 17.9519L75.2148 19.8921C76.1492 19.6585 76.9913 19.292 77.7267 18.7814L76.5859 17.1386ZM74.7444 17.9483C74.0099 18.1202 73.2288 18.208 72.3983 18.208V20.208C73.3705 20.208 74.3053 20.1051 75.2002 19.8957L74.7444 17.9483ZM72.3983 18.208C71.1133 18.208 69.843 18.0155 68.5844 17.6282L67.9962 19.5398C69.4415 19.9845 70.9099 20.208 72.3983 20.208V18.208ZM68.5844 17.6282C67.3266 17.2412 66.2107 16.6972 65.229 16.0005L64.0715 17.6315C65.2392 18.4602 66.5499 19.0948 67.9962 19.5398L68.5844 17.6282ZM65.5402 17.2722L67.1262 14.1782L65.3464 13.2658L63.7604 16.3598L65.5402 17.2722ZM65.5292 14.4291C65.7637 14.6636 66.116 14.9188 66.522 15.1836L67.6145 13.5084C67.2232 13.2532 67.0209 13.0924 66.9434 13.0149L65.5292 14.4291ZM66.5644 15.2098C67.0121 15.4709 67.525 15.736 68.0998 16.0055L68.9487 14.1945C68.4143 13.944 67.9565 13.7064 67.5722 13.4822L66.5644 15.2098ZM68.1235 16.0162C68.7342 16.2834 69.4015 16.5079 70.1219 16.6927L70.6187 14.7553C69.9871 14.5934 69.4237 14.402 68.9251 14.1838L68.1235 16.0162ZM70.1219 16.6927C70.8805 16.8872 71.6574 16.984 72.4503 16.984V14.984C71.8218 14.984 71.212 14.9075 70.6187 14.7553L70.1219 16.6927ZM72.4503 16.984C73.5129 16.984 74.4816 16.8197 75.2125 16.3516C76.0196 15.8349 76.4143 15.0276 76.4143 14.086H74.4143C74.4143 14.4098 74.315 14.5515 74.134 14.6674C73.877 14.832 73.3637 14.984 72.4503 14.984V16.984ZM76.4143 14.086C76.4143 13.4859 76.2394 12.9177 75.8524 12.4414L74.3002 13.7026C74.3638 13.7809 74.4143 13.8888 74.4143 14.086H76.4143ZM75.8524 12.4414C75.5147 12.0258 75.0679 11.7028 74.5615 11.4496L73.6671 13.2384C73.9927 13.4012 74.1872 13.5635 74.3002 13.7026L75.8524 12.4414ZM74.5615 11.4496C74.0788 11.2082 73.5177 10.9977 72.8885 10.8126L72.3241 12.7314C72.8735 12.893 73.3178 13.0638 73.6671 13.2384L74.5615 11.4496ZM72.8885 10.8126C72.2961 10.6384 71.6349 10.447 70.905 10.2385L70.3556 12.1615C71.0816 12.369 71.7377 12.5589 72.3241 12.7314L72.8885 10.8126ZM70.895 10.2357C70.0419 10.0015 69.3135 9.75486 68.7043 9.49836L67.9282 11.3416C68.6364 11.6398 69.4506 11.9132 70.3656 12.1643L70.895 10.2357ZM68.7338 9.51132C68.1619 9.24855 67.7112 8.96002 67.3649 8.65529L66.0437 10.1567C66.564 10.6146 67.188 11.0021 67.8988 11.3287L68.7338 9.51132ZM67.3813 8.67007C67.0409 8.35684 66.7949 8.01544 66.6288 7.64494L64.8038 8.46305C65.0884 9.09789 65.501 9.65782 66.0272 10.1419L67.3813 8.67007ZM66.6448 7.68261C66.4948 7.30779 66.4043 6.82427 66.4043 6.208H64.4043C64.4043 7.01306 64.5217 7.76021 64.7878 8.42539L66.6448 7.68261ZM66.4043 6.208C66.4043 5.39691 66.5539 4.71565 66.8271 4.14193L65.0214 3.28207C64.6013 4.16435 64.4043 5.14709 64.4043 6.208H66.4043ZM66.8271 4.14193C67.1113 3.54511 67.4949 3.06014 67.979 2.67287L66.7296 1.11113C66.0003 1.69452 65.4306 2.42288 65.0214 3.28207L66.8271 4.14193ZM67.9682 2.68135C68.487 2.27785 69.0931 1.96828 69.7978 1.75838L69.2268 -0.158387C68.3021 0.117048 67.4696 0.535483 66.7403 1.10265L67.9682 2.68135ZM69.8163 1.75266C70.5239 1.52685 71.2958 1.41 72.1383 1.41V-0.590001C71.1088 -0.590001 70.13 -0.44685 69.2082 -0.15266L69.8163 1.75266ZM72.1383 1.41C73.3303 1.41 74.4041 1.6004 75.3703 1.96849L76.0823 0.0995111C74.8645 -0.364403 73.5463 -0.590001 72.1383 -0.590001V1.41ZM75.3833 1.97336C76.4112 2.34859 77.2881 2.7899 78.0235 3.2906L79.1491 1.6374C78.2551 1.02877 77.2254 0.516742 76.0692 0.0946417L75.3833 1.97336ZM77.7081 1.9857L76.1221 4.8977L77.8785 5.8543L79.4645 2.9423L77.7081 1.9857ZM90.4013 18.298L90.8074 19.2118L91.5786 18.869L91.3703 18.0512L90.4013 18.298ZM85.1753 19.052L84.8952 20.0121L84.9056 20.015L85.1753 19.052ZM84.0573 18.48L83.3929 19.2274L83.4147 19.2468L83.4376 19.2649L84.0573 18.48ZM83.3033 17.44L82.3879 17.8427L82.391 17.8497L82.3942 17.8567L83.3033 17.44ZM83.0173 8.054H84.0173V7.054H83.0173V8.054ZM81.2233 8.054H80.2233V9.054H81.2233V8.054ZM81.2233 5.376V4.376H80.2233V5.376H81.2233ZM83.0173 5.376V6.376H84.0173V5.376H83.0173ZM83.0173 0.956V-0.0440001H82.0173V0.956H83.0173ZM86.5013 0.956H87.5013V-0.0440001H86.5013V0.956ZM86.5013 5.376H85.5013V6.376H86.5013V5.376ZM89.3613 5.376H90.3613V4.376H89.3613V5.376ZM89.3613 8.054V9.054H90.3613V8.054H89.3613ZM86.5013 8.054V7.054H85.5013V8.054H86.5013ZM86.8652 15.75L86.2145 16.5093L86.2433 16.534L86.2739 16.5564L86.8652 15.75ZM88.8673 15.854L88.5369 14.9101L88.8673 15.854ZM89.6993 15.542L90.6683 15.2952L90.3827 14.1739L89.3146 14.6189L89.6993 15.542ZM89.9951 17.3842C89.5744 17.5712 89.0422 17.7659 88.3912 17.9662L88.9793 19.8778C89.6803 19.6621 90.2921 19.4408 90.8074 19.2118L89.9951 17.3842ZM88.3912 17.9662C87.8155 18.1434 87.2043 18.234 86.5533 18.234V20.234C87.3929 20.234 88.203 20.1166 88.9793 19.8778L88.3912 17.9662ZM86.5533 18.234C86.1519 18.234 85.7839 18.1839 85.4449 18.089L84.9056 20.015C85.4333 20.1627 85.9839 20.234 86.5533 20.234V18.234ZM85.4553 18.092C85.1586 18.0055 84.902 17.8728 84.6769 17.6951L83.4376 19.2649C83.8712 19.6072 84.36 19.8559 84.8953 20.012L85.4553 18.092ZM84.7216 17.7326C84.5228 17.5559 84.3508 17.3256 84.2123 17.0233L82.3942 17.8567C82.637 18.3864 82.9677 18.8494 83.3929 19.2274L84.7216 17.7326ZM84.2186 17.0373C84.0971 16.7612 84.0173 16.3855 84.0173 15.88H82.0173C82.0173 16.5878 82.1281 17.2521 82.3879 17.8427L84.2186 17.0373ZM84.0173 15.88V8.054H82.0173V15.88H84.0173ZM83.0173 7.054H81.2233V9.054H83.0173V7.054ZM82.2233 8.054V5.376H80.2233V8.054H82.2233ZM81.2233 6.376H83.0173V4.376H81.2233V6.376ZM84.0173 5.376V0.956H82.0173V5.376H84.0173ZM83.0173 1.956H86.5013V-0.0440001H83.0173V1.956ZM85.5013 0.956V5.376H87.5013V0.956H85.5013ZM86.5013 6.376H89.3613V4.376H86.5013V6.376ZM88.3613 5.376V8.054H90.3613V5.376H88.3613ZM89.3613 7.054H86.5013V9.054H89.3613V7.054ZM85.5013 8.054V14.71H87.5013V8.054H85.5013ZM85.5013 14.71C85.5013 15.3347 85.6559 16.0305 86.2145 16.5093L87.516 14.9907C87.5474 15.0176 87.5474 15.0359 87.5361 15.0036C87.5224 14.9644 87.5013 14.8742 87.5013 14.71H85.5013ZM86.2739 16.5564C86.7272 16.8888 87.2532 17.036 87.8013 17.036V15.036C87.6213 15.036 87.5233 14.9925 87.4566 14.9436L86.2739 16.5564ZM87.8013 17.036C88.2788 17.036 88.7457 16.956 89.1976 16.7979L88.5369 14.9101C88.2954 14.9947 88.0517 15.036 87.8013 15.036V17.036ZM89.1976 16.7979C89.5527 16.6736 89.8504 16.5623 90.0839 16.4651L89.3146 14.6189C89.1321 14.695 88.8751 14.7918 88.5369 14.9101L89.1976 16.7979ZM88.7302 15.7888L89.4322 18.5448L91.3703 18.0512L90.6683 15.2952L88.7302 15.7888ZM93.9578 17.908L94.7357 17.2797L93.9578 17.908ZM92.8658 5.376V4.376H91.8658V5.376H92.8658ZM96.3498 5.376H97.3498V4.376H96.3498V5.376ZM100.562 15.698L101.1 16.5407L101.106 16.537L100.562 15.698ZM102.122 13.826L103.024 14.2581L103.122 14.0532V13.826H102.122ZM102.122 5.376V4.376H101.122V5.376H102.122ZM105.606 5.376H106.606V4.376H105.606V5.376ZM105.788 15.776L104.998 16.3899L105.019 16.4158L105.04 16.4404L105.788 15.776ZM106.438 16.036H107.438V15.0931L106.496 15.0377L106.438 16.036ZM106.438 19L106.634 19.9806L107.438 19.8198V19H106.438ZM105.554 19.13L105.483 18.1325L105.477 18.1329L105.554 19.13ZM103.396 18.74L102.784 19.5313L102.804 19.5466L102.825 19.5609L103.396 18.74ZM102.72 17.544L101.722 17.6152L101.725 17.6481L101.729 17.6806L102.72 17.544ZM102.642 16.452L103.639 16.3808L103.427 13.4027L101.803 15.9081L102.642 16.452ZM100.302 18.558L100.742 19.4557L100.302 18.558ZM97.1558 18.26C95.9832 18.26 95.2335 17.8959 94.7357 17.2797L93.1798 18.5363C94.1381 19.7227 95.5204 20.26 97.1558 20.26V18.26ZM94.7357 17.2797C94.2098 16.6286 93.8658 15.5579 93.8658 13.904H91.8658C91.8658 15.7861 92.2497 17.3848 93.1798 18.5363L94.7357 17.2797ZM93.8658 13.904V5.376H91.8658V13.904H93.8658ZM92.8658 6.376H96.3498V4.376H92.8658V6.376ZM95.3498 5.376V13.15H97.3498V5.376H95.3498ZM95.3498 13.15C95.3498 14.2885 95.549 15.3223 96.1033 16.0933C96.7015 16.9252 97.5975 17.296 98.6118 17.296V15.296C98.118 15.296 97.883 15.1424 97.7272 14.9257C97.5275 14.648 97.3498 14.1089 97.3498 13.15H95.3498ZM98.6118 17.296C99.4966 17.296 100.331 17.0319 101.1 16.5407L100.023 14.8553C99.5442 15.1614 99.0789 15.296 98.6118 15.296V17.296ZM101.106 16.537C101.931 16.0019 102.562 15.2216 103.024 14.2581L101.22 13.3939C100.884 14.0944 100.475 14.5621 100.018 14.859L101.106 16.537ZM103.122 13.826V5.376H101.122V13.826H103.122ZM102.122 6.376H105.606V4.376H102.122V6.376ZM104.606 5.376V14.996H106.606V5.376H104.606ZM104.606 14.996C104.606 15.4188 104.666 15.9625 104.998 16.3899L106.577 15.1621C106.631 15.2307 106.634 15.2728 106.625 15.2368C106.617 15.2026 106.606 15.1271 106.606 14.996H104.606ZM105.04 16.4404C105.417 16.8645 105.93 17.0079 106.379 17.0343L106.496 15.0377C106.429 15.0338 106.412 15.024 106.426 15.0295C106.434 15.0327 106.45 15.0401 106.47 15.0542C106.491 15.0686 106.514 15.0877 106.535 15.1116L105.04 16.4404ZM105.438 16.036V19H107.438V16.036H105.438ZM106.242 18.0194C105.92 18.0838 105.669 18.1192 105.483 18.1325L105.625 20.1275C105.924 20.1061 106.263 20.0548 106.634 19.9806L106.242 18.0194ZM105.477 18.1329C105.273 18.1487 105.091 18.156 104.93 18.156V20.156C105.15 20.156 105.384 20.146 105.63 20.1271L105.477 18.1329ZM104.93 18.156C104.452 18.156 104.156 18.0506 103.967 17.9191L102.825 19.5609C103.433 19.9841 104.16 20.156 104.93 20.156V18.156ZM104.007 17.9487C103.845 17.8233 103.746 17.6658 103.71 17.4074L101.729 17.6806C101.832 18.4275 102.184 19.0673 102.784 19.5313L104.007 17.9487ZM103.717 17.4728L103.639 16.3808L101.644 16.5232L101.722 17.6152L103.717 17.4728ZM101.803 15.9081C101.289 16.7003 100.644 17.2761 99.8611 17.6603L100.742 19.4557C101.866 18.9039 102.781 18.0757 103.481 16.9959L101.803 15.9081ZM99.8611 17.6603C99.0553 18.0559 98.159 18.26 97.1558 18.26V20.26C98.4405 20.26 99.6416 19.9961 100.742 19.4557L99.8611 17.6603ZM112.89 18.714L113.305 17.8043L112.89 18.714ZM110.836 17.206L111.582 16.5404L110.836 17.206ZM109.484 14.97L108.543 15.3087L108.547 15.3202L108.552 15.3315L109.484 14.97ZM109.458 9.432L108.519 9.08718L108.516 9.09568L108.513 9.10423L109.458 9.432ZM110.732 7.196L111.499 7.83822V7.83822L110.732 7.196ZM112.656 5.688L113.095 6.58657H113.095L112.656 5.688ZM117.804 5.87L117.284 6.72424L117.292 6.7291L117.804 5.87ZM119.702 7.768L118.836 8.26828L120.702 11.4977V7.768H119.702ZM119.702 0.0199995V-0.98H118.702V0.0199995H119.702ZM123.186 0.0199995H124.186V-0.98H123.186V0.0199995ZM123.368 15.776L124.157 15.1621V15.1621L123.368 15.776ZM123.992 16.036H124.992V15.0931L124.051 15.0377L123.992 16.036ZM123.992 19L124.188 19.9806L124.992 19.8198V19H123.992ZM120.976 18.714L121.592 17.9265L120.976 18.714ZM120.3 17.492L119.304 17.5825L119.305 17.5949L120.3 17.492ZM120.222 16.634L121.218 16.5435L120.933 13.4143L119.357 16.1323L120.222 16.634ZM118.168 18.61L118.623 19.5008L118.629 19.4972L118.168 18.61ZM117.414 16.14L117.701 17.0978L117.723 17.0913L117.744 17.0839L117.414 16.14ZM118.376 15.646L118.953 16.463V16.463L118.376 15.646ZM119.156 14.918L118.403 14.2595L118.391 14.2732L118.38 14.2874L119.156 14.918ZM119.702 14.008L120.64 14.3537L120.702 14.1864V14.008H119.702ZM119.702 10.758H120.702V10.5818L120.642 10.4163L119.702 10.758ZM119.104 9.718L118.299 10.3112L118.317 10.3352L118.336 10.3582L119.104 9.718ZM118.246 8.886L117.632 9.67535L117.656 9.69408L117.681 9.71131L118.246 8.886ZM117.232 8.314L116.861 9.24248L116.868 9.24555L116.876 9.24849L117.232 8.314ZM114.736 8.444L114.289 7.54957L114.282 7.55312L114.275 7.55678L114.736 8.444ZM113.618 9.38L114.392 10.0132L114.399 10.0048L114.406 9.99631L113.618 9.38ZM112.89 10.706L111.945 10.38L112.89 10.706ZM112.916 13.852L111.985 14.2177L112.916 13.852ZM113.696 15.126L112.954 15.7969L113.696 15.126ZM114.866 15.984L114.447 16.892L114.453 16.8949L114.46 16.8978L114.866 15.984ZM115.49 18.26C114.687 18.26 113.964 18.1048 113.305 17.8043L112.475 19.6237C113.411 20.0512 114.421 20.26 115.49 20.26V18.26ZM113.305 17.8043C112.631 17.4967 112.06 17.0762 111.582 16.5404L110.09 17.8716C110.756 18.6185 111.554 19.2033 112.475 19.6237L113.305 17.8043ZM111.582 16.5404C111.095 15.9937 110.705 15.3529 110.416 14.6085L108.552 15.3315C108.922 16.2858 109.433 17.1356 110.09 17.8716L111.582 16.5404ZM110.425 14.6313C110.155 13.8809 110.016 13.0689 110.016 12.188H108.016C108.016 13.2831 108.189 14.3258 108.543 15.3087L110.425 14.6313ZM110.016 12.188C110.016 11.3006 110.148 10.4938 110.403 9.75977L108.513 9.10423C108.179 10.0689 108.016 11.0994 108.016 12.188H110.016ZM110.397 9.77682C110.672 9.02697 111.041 8.38415 111.499 7.83822L109.966 6.55378C109.348 7.29051 108.868 8.13836 108.519 9.08718L110.397 9.77682ZM111.499 7.83822C111.947 7.3034 112.477 6.88849 113.095 6.58657L112.217 4.78943C111.345 5.21551 110.592 5.80593 109.966 6.55378L111.499 7.83822ZM113.095 6.58657C113.695 6.29366 114.358 6.142 115.1 6.142V4.142C114.074 4.142 113.108 4.35434 112.217 4.78943L113.095 6.58657ZM115.1 6.142C115.937 6.142 116.655 6.34157 117.284 6.7242L118.324 5.0158C117.358 4.42776 116.274 4.142 115.1 4.142V6.142ZM117.292 6.7291C117.968 7.1318 118.475 7.64403 118.836 8.26828L120.568 7.26772C120.027 6.33197 119.269 5.57887 118.316 5.0109L117.292 6.7291ZM120.702 7.768V0.0199995H118.702V7.768H120.702ZM119.702 1.02H123.186V-0.98H119.702V1.02ZM122.186 0.0199995V14.996H124.186V0.0199995H122.186ZM122.186 14.996C122.186 15.4188 122.246 15.9625 122.579 16.3899L124.157 15.1621C124.211 15.2307 124.214 15.2728 124.205 15.2368C124.197 15.2026 124.186 15.1271 124.186 14.996H122.186ZM122.579 16.3899C122.949 16.8663 123.495 17.0085 123.933 17.0343L124.051 15.0377C123.983 15.0337 123.974 15.024 124 15.0349C124.032 15.0485 124.098 15.0857 124.157 15.1621L122.579 16.3899ZM122.992 16.036V19H124.992V16.036H122.992ZM123.796 18.0194C123.219 18.1347 122.798 18.182 122.51 18.182V20.182C122.985 20.182 123.551 20.1079 124.188 19.9806L123.796 18.0194ZM122.51 18.182C122.056 18.182 121.777 18.0712 121.592 17.9265L120.36 19.5015C120.972 19.9808 121.716 20.182 122.51 20.182V18.182ZM121.592 17.9265C121.407 17.7815 121.319 17.6211 121.295 17.3891L119.305 17.5949C119.385 18.3682 119.748 19.0225 120.36 19.5015L121.592 17.9265ZM121.296 17.4015L121.218 16.5435L119.226 16.7245L119.304 17.5825L121.296 17.4015ZM119.357 16.1323C118.947 16.8392 118.4 17.362 117.707 17.7228L118.629 19.4972C119.669 18.9566 120.492 18.1621 121.087 17.1357L119.357 16.1323ZM117.714 17.7192C117.002 18.0822 116.265 18.26 115.49 18.26V20.26C116.587 20.26 117.635 20.0045 118.623 19.5008L117.714 17.7192ZM116.4 17.296C116.836 17.296 117.271 17.227 117.701 17.0978L117.127 15.1822C116.864 15.261 116.623 15.296 116.4 15.296V17.296ZM117.744 17.0839C118.177 16.9324 118.581 16.7255 118.953 16.463L117.799 14.829C117.582 14.9825 117.344 15.1049 117.084 15.1961L117.744 17.0839ZM118.953 16.463C119.321 16.2027 119.649 15.8975 119.932 15.5486L118.38 14.2874C118.213 14.4931 118.02 14.6733 117.799 14.829L118.953 16.463ZM119.909 15.5765C120.228 15.2118 120.475 14.8035 120.64 14.3537L118.764 13.6623C118.687 13.8712 118.57 14.0695 118.403 14.2595L119.909 15.5765ZM120.702 14.008V10.758H118.702V14.008H120.702ZM120.642 10.4163C120.464 9.92617 120.206 9.47855 119.872 9.07782L118.336 10.3582C118.522 10.5815 118.663 10.8272 118.762 11.0997L120.642 10.4163ZM119.909 9.1248C119.602 8.70747 119.235 8.35096 118.811 8.06069L117.681 9.71131C117.916 9.8717 118.121 10.0699 118.299 10.3112L119.909 9.1248ZM118.86 8.09665C118.471 7.79398 118.046 7.55402 117.588 7.37951L116.876 9.24849C117.146 9.35131 117.397 9.49268 117.632 9.67535L118.86 8.09665ZM117.603 7.38552C117.148 7.20328 116.675 7.106 116.192 7.106V9.106C116.402 9.106 116.623 9.14739 116.861 9.24248L117.603 7.38552ZM116.192 7.106C115.522 7.106 114.883 7.25255 114.289 7.54957L115.183 9.33843C115.491 9.18478 115.822 9.106 116.192 9.106V7.106ZM114.275 7.55678C113.71 7.85049 113.227 8.25666 112.831 8.76369L114.406 9.99631C114.633 9.70601 114.896 9.48817 115.197 9.33122L114.275 7.55678ZM112.844 8.74676C112.451 9.22657 112.153 9.77448 111.945 10.38L113.835 11.032C113.973 10.6322 114.161 10.2961 114.392 10.0132L112.844 8.74676ZM111.945 10.38C111.735 10.9887 111.63 11.6189 111.63 12.266H113.63C113.63 11.8384 113.699 11.4287 113.835 11.032L111.945 10.38ZM111.63 12.266C111.63 12.951 111.745 13.605 111.985 14.2177L113.847 13.4863C113.706 13.1283 113.63 12.725 113.63 12.266H111.63ZM111.985 14.2177C112.217 14.8083 112.539 15.338 112.954 15.7969L114.438 14.4551C114.194 14.186 113.996 13.8664 113.847 13.4863L111.985 14.2177ZM112.954 15.7969C113.375 16.262 113.875 16.6281 114.447 16.892L115.285 15.076C114.955 14.9239 114.675 14.718 114.438 14.4551L112.954 15.7969ZM114.46 16.8978C115.066 17.1672 115.717 17.296 116.4 17.296V15.296C115.974 15.296 115.602 15.2168 115.272 15.0702L114.46 16.8978ZM127.386 19H126.386V20H127.386V19ZM127.386 5.376V4.376H126.386V5.376H127.386ZM130.87 5.376H131.87V4.376H130.87V5.376ZM130.87 19V20H131.87V19H130.87ZM127.386 3.478H126.386V4.478H127.386V3.478ZM127.386 0.0199995V-0.98H126.386V0.0199995H127.386ZM130.87 0.0199995H131.87V-0.98H130.87V0.0199995ZM130.87 3.478V4.478H131.87V3.478H130.87ZM128.386 19V5.376H126.386V19H128.386ZM127.386 6.376H130.87V4.376H127.386V6.376ZM129.87 5.376V19H131.87V5.376H129.87ZM130.87 18H127.386V20H130.87V18ZM128.386 3.478V0.0199995H126.386V3.478H128.386ZM127.386 1.02H130.87V-0.98H127.386V1.02ZM129.87 0.0199995V3.478H131.87V0.0199995H129.87ZM130.87 2.478H127.386V4.478H130.87V2.478ZM138.095 18.688L137.699 19.6062L138.095 18.688ZM135.833 17.154L135.097 17.8315L135.107 17.8415L135.116 17.8514L135.833 17.154ZM134.429 14.892L135.361 14.5305L134.429 14.892ZM134.429 9.51L135.361 9.87153L134.429 9.51ZM135.833 7.274L135.107 6.58625L135.106 6.5868L135.833 7.274ZM144.049 5.714L143.646 6.62934L143.653 6.63221L144.049 5.714ZM146.285 7.274L145.549 7.95148L145.559 7.96154L145.568 7.97135L146.285 7.274ZM147.715 9.51L146.782 9.87153L147.715 9.51ZM147.715 14.892L148.647 15.2535L147.715 14.892ZM146.311 17.154L147.037 17.8413L147.046 17.8315L146.311 17.154ZM144.075 18.688L144.471 19.6062L144.075 18.688ZM137.783 13.878L136.837 14.204L136.844 14.224L136.852 14.2437L137.783 13.878ZM138.537 15.152L137.778 15.8028L137.786 15.813L137.795 15.8229L138.537 15.152ZM139.681 16.01L139.248 16.9115L139.263 16.9187L139.278 16.9253L139.681 16.01ZM142.489 16.01L142.892 16.9253L142.907 16.9187L142.922 16.9115L142.489 16.01ZM143.607 15.152L142.865 14.4811L142.856 14.491L142.848 14.5012L143.607 15.152ZM144.361 13.852L143.426 13.4973L143.42 13.5116L143.415 13.526L144.361 13.852ZM144.361 10.55L143.415 10.876L143.42 10.8904L143.426 10.9047L144.361 10.55ZM143.607 9.25L142.848 9.90079L142.856 9.91097L142.865 9.92091L143.607 9.25ZM142.489 8.418L142.056 9.31952L142.071 9.32667L142.086 9.33331L142.489 8.418ZM139.681 8.418L140.114 9.31952L139.681 8.418ZM138.537 9.276L137.795 8.60509L137.786 8.61503L137.778 8.62521L138.537 9.276ZM137.783 10.576L136.848 10.2213L136.842 10.2356L136.837 10.25L137.783 10.576ZM141.085 18.26C140.091 18.26 139.232 18.0896 138.491 17.7698L137.699 19.6062C138.725 20.0491 139.86 20.26 141.085 20.26V18.26ZM138.491 17.7698C137.718 17.4364 137.075 16.9971 136.55 16.4566L135.116 17.8514C135.838 18.5935 136.704 19.177 137.699 19.6062L138.491 17.7698ZM136.568 16.4765C136.048 15.9115 135.646 15.2652 135.361 14.5305L133.496 15.2535C133.87 16.2175 134.404 17.0791 135.097 17.8315L136.568 16.4765ZM135.361 14.5305C135.078 13.7996 134.935 13.0298 134.935 12.214H132.935C132.935 13.2702 133.121 14.2857 133.496 15.2535L135.361 14.5305ZM134.935 12.214C134.935 11.3785 135.079 10.6003 135.361 9.87153L133.496 9.14847C133.12 10.1184 132.935 11.1428 132.935 12.214H134.935ZM135.361 9.87153C135.645 9.13914 136.045 8.50533 136.559 7.9612L135.106 6.5868C134.408 7.32533 133.871 8.18219 133.496 9.14847L135.361 9.87153ZM136.559 7.96174C137.084 7.40738 137.724 6.9632 138.491 6.63221L137.699 4.79579C136.698 5.22747 135.83 5.82328 135.107 6.58625L136.559 7.96174ZM138.491 6.63221C139.232 6.31243 140.091 6.142 141.085 6.142V4.142C139.86 4.142 138.725 4.3529 137.699 4.79579L138.491 6.63221ZM141.085 6.142C142.079 6.142 142.926 6.31258 143.646 6.62931L144.452 4.79868C143.438 4.35275 142.309 4.142 141.085 4.142V6.142ZM143.653 6.63221C144.418 6.96222 145.045 7.40355 145.549 7.95148L147.02 6.59652C146.312 5.82711 145.448 5.22844 144.445 4.79579L143.653 6.63221ZM145.568 7.97135C146.097 8.5146 146.501 9.14517 146.782 9.87153L148.647 9.14847C148.27 8.17616 147.721 7.31606 147.002 6.57664L145.568 7.97135ZM146.782 9.87153C147.065 10.6003 147.209 11.3785 147.209 12.214H149.209C149.209 11.1428 149.023 10.1184 148.647 9.14847L146.782 9.87153ZM147.209 12.214C147.209 13.0298 147.066 13.7996 146.782 14.5305L148.647 15.2535C149.022 14.2857 149.209 13.2702 149.209 12.214H147.209ZM146.782 14.5305C146.498 15.2652 146.096 15.9115 145.575 16.4765L147.046 17.8315C147.739 17.0791 148.273 16.2175 148.647 15.2535L146.782 14.5305ZM145.584 16.4668C145.079 17.0009 144.449 17.4373 143.679 17.7698L144.471 19.6062C145.468 19.176 146.329 18.5898 147.037 17.8412L145.584 16.4668ZM143.679 17.7698C142.937 18.0896 142.079 18.26 141.085 18.26V20.26C142.31 20.26 143.444 20.0491 144.471 19.6062L143.679 17.7698ZM136.523 12.214C136.523 12.9162 136.623 13.5828 136.837 14.204L138.728 13.552C138.596 13.1679 138.523 12.7251 138.523 12.214H136.523ZM136.852 14.2437C137.08 14.8238 137.387 15.3469 137.778 15.8028L139.296 14.5012C139.063 14.2291 138.867 13.9028 138.714 13.5123L136.852 14.2437ZM137.795 15.8229C138.21 16.281 138.695 16.6462 139.248 16.9115L140.114 15.1085C139.8 14.9578 139.523 14.751 139.278 14.4811L137.795 15.8229ZM139.278 16.9253C139.846 17.1752 140.452 17.296 141.085 17.296V15.296C140.712 15.296 140.382 15.2261 140.084 15.0947L139.278 16.9253ZM141.085 17.296C141.717 17.296 142.324 17.1752 142.892 16.9253L142.086 15.0947C141.787 15.2261 141.458 15.296 141.085 15.296V17.296ZM142.922 16.9115C143.48 16.6437 143.964 16.2724 144.366 15.8028L142.848 14.5012C142.626 14.7596 142.365 14.9603 142.056 15.1085L142.922 16.9115ZM144.348 15.8229C144.775 15.3508 145.093 14.7975 145.306 14.178L143.415 13.526C143.282 13.9118 143.097 14.2252 142.865 14.4811L144.348 15.8229ZM145.296 14.2067C145.535 13.5771 145.647 12.9004 145.647 12.188H143.647C143.647 12.6889 143.568 13.1216 143.426 13.4973L145.296 14.2067ZM145.647 12.188C145.647 11.4891 145.533 10.8217 145.296 10.1953L143.426 10.9047C143.57 11.2836 143.647 11.7082 143.647 12.188H145.647ZM145.306 10.224C145.093 9.60451 144.775 9.05121 144.348 8.57909L142.865 9.92091C143.097 10.1768 143.282 10.4902 143.415 10.876L145.306 10.224ZM144.366 8.59921C143.958 8.12293 143.464 7.75449 142.892 7.50268L142.086 9.33331C142.38 9.46285 142.632 9.64907 142.848 9.90079L144.366 8.59921ZM142.922 7.51648C142.347 7.24067 141.73 7.106 141.085 7.106V9.106C141.445 9.106 141.764 9.17932 142.056 9.31952L142.922 7.51648ZM141.085 7.106C140.439 7.106 139.823 7.24067 139.248 7.51648L140.114 9.31952C140.406 9.17932 140.725 9.106 141.085 9.106V7.106ZM139.248 7.51648C138.695 7.7818 138.21 8.14701 137.795 8.60509L139.278 9.94691C139.523 9.67699 139.8 9.4702 140.114 9.31952L139.248 7.51648ZM137.778 8.62521C137.382 9.087 137.075 9.62357 136.848 10.2213L138.718 10.9307C138.872 10.5231 139.068 10.193 139.296 9.92679L137.778 8.62521ZM136.837 10.25C136.624 10.8683 136.523 11.5257 136.523 12.214H138.523C138.523 11.7237 138.595 11.2891 138.728 10.902L136.837 10.25Z" fill="black"/>
</g>
<defs>
<filter id="filter0_d_1_7" x="0" y="0.0200195" width="152.209" height="27.24" filterUnits="userSpaceOnUse" color-interpolation-filters="sRGB">
<feFlood flood-opacity="0" result="BackgroundImageFix"/>
<feColorMatrix in="SourceAlpha" type="matrix" values="0 0 0 0 0 0 0 0 0 0 0 0 0 0 0 0 0 0 127 0" result="hardAlpha"/>
<feOffset dy="4"/>
<feGaussianBlur stdDeviation="2"/>
<feComposite in2="hardAlpha" operator="out"/>
<feColorMatrix type="matrix" values="0 0 0 0 0 0 0 0 0 0 0 0 0 0 0 0 0 0 0.25 0"/>
<feBlend mode="normal" in2="BackgroundImageFix" result="effect1_dropShadow_1_7"/>
<feBlend mode="normal" in="SourceGraphic" in2="effect1_dropShadow_1_7" result="shape"/>
</filter>
</defs>
</svg>
